<svg height="512" viewBox="0 0 32 32" width="512" xmlns="http://www.w3.org/2000/svg"><g id="Layer_2" data-name="Layer 2"><path d="m28 10a3 3 0 0 0 -3 3v15a3 3 0 0 0 6 0v-15a3 3 0 0 0 -3-3z"/><path d="m20 14a3 3 0 0 0 -3 3v11a3 3 0 0 0 6 0v-11a3 3 0 0 0 -3-3z"/><path d="m12 19a3 3 0 0 0 -3 3v6a3 3 0 0 0 6 0v-6a3 3 0 0 0 -3-3z"/><path d="m4.555 9.383a1.5 1.5 0 0 1 1.5 1.5 1 1 0 0 0 2 0 3.494 3.494 0 0 0 -2.5-3.337v-.163a1 1 0 1 0 -2 0v.163a3.49 3.49 0 0 0 1 6.837 1.5 1.5 0 1 1 -1.5 1.5 1 1 0 0 0 -2 0 3.5 3.5 0 0 0 2.5 3.337v.163a1 1 0 0 0 2 0v-.163a3.49 3.49 0 0 0 -1-6.837 1.5 1.5 0 1 1 0-3z"/><path d="m10.837 14.593a.99.99 0 0 0 .482-.125l17.153-9.463-.41 1.645a1 1 0 0 0 .728 1.212.924.924 0 0 0 .243.03 1 1 0 0 0 .967-.758l.947-3.8.026-.1.236-.948-4.85-1.213a1 1 0 1 0 -.483 1.941l1.423.354-16.946 9.349a1 1 0 0 0 .484 1.876z"/></g></svg>