<svg viewBox="0 0 32 32" xmlns="http://www.w3.org/2000/svg"><g id="cyber_monday" data-name="cyber monday"><path d="m20.48 19.99a2.99432 2.99432 0 0 1 -.76-2.05.96493.96493 0 0 0 -1.12-.87c-1.05137.05861-1.79007-.96768-2.50991-1.16015-.33139-.01562-.44237.06841-.87009.38012a3.02552 3.02552 0 0 1 -2.05.77.96227.96227 0 0 0 -.88.94 2.9554 2.9554 0 0 1 -.77 1.99c-.32058.43017-.40472.54248-.38.87.277.85483 1.28043 1.47732 1.14987 2.75a.977.977 0 0 0 .96013.87003 2.96878 2.96878 0 0 1 1.98.77c.67858.5303.8669.523 1.55005.01a2.97449 2.97449 0 0 1 2.05-.78.96033.96033 0 0 0 .88995-.95 2.96363 2.96363 0 0 1 .76-1.98c.53168-.70981.52582-.84687 0-1.56zm-6.29-2.03a1.00055 1.00055 0 0 1 0 2 1.00055 1.00055 0 0 1 0-2zm1.23 4.81a1.00077 1.00077 0 0 1 -1.40992-1.42l2.57-2.57a1.00076 1.00076 0 0 1 1.41993 1.41008zm2.39.81a1.00068 1.00068 0 0 1 0-2 1.00068 1.00068 0 0 1 0 2zm-14.71-10.92v14.72a2.45612 2.45612 0 0 0 2.45 2.46h20.9a2.45612 2.45612 0 0 0 2.45-2.46v-14.72zm19 10.07c-.25.34-.4.56-.39.73a2.94438 2.94438 0 0 1 -2.99 3.02c-.86066.19509-1.44314 1.25082-2.72 1.14994-1.25931.10591-1.87553-.96725-2.69994-1.15a2.9537 2.9537 0 0 1 -3.01006-2.94994c.02-.24-.13-.45994-.38-.79a2.90518 2.90518 0 0 1 0-3.94c.25-.33.4-.55.38-.72a2.96652 2.96652 0 0 1 2.97-3.02c.25.03.44-.13.77-.38a3.05951 3.05951 0 0 1 1.97-.77c1.232-.11123 1.86175.94161 2.69 1.15013a2.97784 2.97784 0 0 1 3.03 2.94987c-.02.25.13.47.38.8a3.03244 3.03244 0 0 1 .76 1.97 2.998 2.998 0 0 1 -.76 1.95zm6.8-15.04v2.97242h-25.8v-2.97242a2.45613 2.45613 0 0 1 2.45-2.46h2.82v-2.07a1 1 0 0 1 2 0v2.07h4.63v-2.07a1 1 0 0 1 2 0v2.07h4.63v-2.07a1 1 0 0 1 2 0v2.07h2.82a2.45613 2.45613 0 0 1 2.45 2.46z"/></g></svg>