<svg clip-rule="evenodd" fill-rule="evenodd" height="1.707in" image-rendering="optimizeQuality" shape-rendering="geometricPrecision" text-rendering="geometricPrecision" viewBox="0 0 1.70666 1.70666" width="1.707in" xmlns="http://www.w3.org/2000/svg"><g id="Layer_x0020_1"><path d="m.936165 1.67519h-.165665c-.0220984 0-.0399921-.0178976-.0399921-.0399961v-.17978h.245661v.179787c-.00000787.0220906-.0179094.0399882-.0400039.0399882z"/><path d="m1.43918 1.40208h-1.17169c-.104 0-.188622-.0667638-.188622-.148819l-.00000394-.259323c0-.0820551.0846102-.148819.188618-.148819l1.17169-.00000787c.103996 0 .18861.0667677.18861.148823v.259331c.00000787.0820591-.0846024.148815-.188594.148815zm-.397823-.115803h-.00001575l-.00056693-.00000394-.00046457-.00000787-.00012205-.00000394-.00058268-.00002362-.00032284-.00001181-.00025984-.00001575-.00058268-.00003937-.00017717-.00001181-.00040551-.00003543-.00116142-.00011811-.00044882-.00005118-.00012992-.00001968c-.00374409-.00048819-.0073189-.00149213-.0106654-.00294094l-.00053937-.00023622-.0005315-.00024409-.00038189-.00017717-.00014961-.0000748-.00052756-.00025984-.00019291-.00009843-.00001181-.00000394c-.0055315-.00281496-.0104764-.00696457-.0143386-.0123701l-.102803-.143913v.120685c-.00001575.0220748-.0179173.0399764-.0399921.0399764-.0220945 0-.0399921-.0178976-.0399921-.0399921v-.24439c-.00033858-.0128346.0055-.0256063.0167323-.0336339.00909843-.00650787.0200039-.00864961.0302205-.00683465l.00012205.00001968.00040945.0000748.00020472.00003937.00061417.00012598.00029528.00006299c.00344488.00075591.00672441.00195276.00977165.00353543l.00068898.00036221.00016929.00009055.00067323.00037795.00017323.00010236.00083465.0005.00064173.00040158.00018504.00011811.00062205.00040945.00018898.00012992.00060236.00042126.00020079.00014173.0005748.00042126.00021654.00016535.00054724.00042126.00023228.00018504.00014173.00011417.00059449.00048819.0000748.00006299.0006378.00055118.00017717.00015354c.00250394.00222441.00472835.00475984.00661024.00754331l.102197.143067v-.120701c0-.0220945.0178976-.0399921.0399961-.0399921.0220945 0 .0399921.0178976.0399921.0399921v.245488c-.00000394.00458268-.00077953.00898031-.00220079.0130827l-.00000394.00001181c-.00020472.00059055-.0004252.0011811-.00065748.00175984l-.00001181.00003543-.00027559.00066929-.00009449.00022047-.00029528.00066929c-.00280709.00624016-.00724803.0118425-.0132205.0161024-.00271654.00193701-.00559449.00348031-.0085748.00465354l-.00009449.00003937c-.00119291.00046457-.00240157.00087008-.00361811.00121654l-.00003543.00001181-.00091732.00024409-.00019291.00005118-.00074409.0001811-.00002756.00000394-.00034646.00007874-.00037402.00008268-.00025197.00005118-.00012205.00002362-.00085827.00016142-.00026378.00004724-.00037795.00006299-.00034646.00005512-.00002756.00000394-.00037795.00005512-.00112992.00014567-.00037795.00003937-.00008661.00001181-.00029134.00002756-.00072047.00005906-.00003543.00000394-.00075591.00005118-.00022441.00001181-.00015354.00000787-.00037795.00001575-.00037795.00001181-.00011811.00000394-.00025984.00000394-.00075591.00000787zm-.709898-.198437h.0234291c.012689 0 .0234134-.0107244.0234134-.0234291 0-.0127087-.0107244-.0234409-.0234134-.0234409h-.0234291v.0468701zm.0815276.198354c-.0138268 0-.0272598-.0071811-.0346772-.0199961l-.0468504-.0811457v.0611339c0 .0220945-.0178976.0399921-.0399961.0399921-.0220945 0-.0399921-.0178976-.0399921-.0399921v-.118354-.126839c0-.0220984.0178976-.0399961.0399921-.0399961h.0634252c.0570039 0 .103398.0463819.103398.103402 0 .0384213-.0210669.0720157-.0522441.0898504l.0415394.0719449c.0110354.0191339.00448819.0436024-.0146378.0546417-.00629528.00362205-.0131811.00535827-.0199567.00535827zm.324614-.122563h-.150945v.0427874h.150945c.0220945 0 .0399921.0178976.0399921.0399921s-.0179016.0399764-.0399921.0399764h-.181843c-.0270669 0-.0490906-.0220197-.0490906-.0490866v-.113661-.11365c0-.0270669.0220118-.0490748.0490906-.0490748h.181843c.0220945 0 .0399921.0178976.0399921.0399921 0 .0220984-.0178976.0399961-.0399921.0399961h-.150945v.0427441h.150945c.0220945 0 .0399921.0178976.0399921.0399921s-.0179016.0399921-.0399921.0399921zm.677594-.122823h-.0827402v.205492c-.00000787.0220748-.0179134.0399764-.0399921.0399764-.0220945 0-.0399921-.0178976-.0399921-.0399921v-.205476h-.082748c-.0220945 0-.0399921-.0178976-.0399921-.0399961 0-.0220945.0178976-.0399921.0399921-.0399921h.12274.122748c.0220945 0 .0399921.0178976.0399921.0399921 0 .0220984-.0179134.0399961-.0400079.0399961z"/><path d="m.348248.791787.497488-.393019.509934.393012z"/><g id="_574872632"><path id="_574873280" d="m.682744 1.67519h-.397346c-.0220787 0-.0399921-.0178976-.0399921-.0399961v-.180665c.00738189.00058268.0147559.00088583.0220827.00088583h.409689v.187972c0 .0111693.0019685.021874.00556693.0318031z"/><path id="_574873352" d="m1.42128 1.67519h-.397343c.00359843-.0099252.00556299-.0206299.00556299-.0317953v-.18798h.409681c.00733071 0 .0147047-.00030315.0220906-.00088583v.180673c0 .0220906-.0178976.0399882-.0399921.0399882z"/></g><path d="m.18161.844504c-.00592913 0-.0118858-.0013189-.0174291-.004-.0138031-.0066811-.022563-.0206654-.022563-.0359961v-.217126c0-.0122362.00559449-.0237874.0151929-.0313858l.663335-.524094c.0144016-.011374.0346772-.0115.0491969-.00029134l.680106.524091c.00983071.00756693.0155827.0192717.0155827.0316732v.21713c0 .015248-.00866142.0291614-.0223307.0358858-.0136654.00672047-.0299803.00511024-.0420591-.0042126l-.655311-.505055-.638921.504752c-.00720472.00570079-.0159646.00862992-.0247992.00862992z"/><path d="m1.66653 1.67519h-1.62639c-.0220827 0-.0399921-.0178976-.0399921-.0399961 0-.0220945.0179094-.0399921.0399921-.0399921h1.62639c.0220984 0 .0399961.0178976.0399961.0399921 0 .0220984-.0178976.0399961-.0399961.0399961z"/></g></svg>